# xmcd CD database file
#
# Track frame offsets:
#	150
#	13356
#	33947
#	50640
#	68545
#	80052
#	99158
#	110806
#	123409
#	140077
#	166049
#	189398
#	200910
#	216826
#	235109
#
# Disc length: 3315 seconds
#
# Revision: 0
# Processed by: cddbd v1.5.1PL0 Copyright (c) Steve Scherf et al.
# Submitted via: CDex 1.51
#
DISCID=d70cf10f
DTITLE=Larry Jackson And The Holics - Believe It or Not
DYEAR=1999
DGENRE=Blues
TTITLE0=The Trick
TTITLE1=Fishin'
TTITLE2=Howlin' For My Darling
TTITLE3=Please Don't Tell Me
TTITLE4=No Matter What
TTITLE5=On A Good Day
TTITLE6=Can't Stop
TTITLE7=Hey, Hey, Hey
TTITLE8=Blind
TTITLE9=Dream
TTITLE10=Waited Too Long
TTITLE11=If Momma Wasn't 'Round
TTITLE12=Could Be
TTITLE13=The One
TTITLE14=Walkin' Down The Street
EXTD=YEAR: 1999
EXTT0=
EXTT1=
EXTT2=
EXTT3=
EXTT4=
EXTT5=
EXTT6=
EXTT7=
EXTT8=
EXTT9=
EXTT10=
EXTT11=
EXTT12=
EXTT13=
EXTT14=
PLAYORDER=
